<?xml version="1.0" encoding="UTF-8"?>
<svg width="70" height="70" viewBox="0 0 70 70" fill="none" xmlns="http://www.w3.org/2000/svg">
    <circle cx="35" cy="35" r="35" fill="#6c757d"/>
    <path d="M47 26H45V24C45 23.448 44.552 23 44 23C43.448 23 43 23.448 43 24V26H41C40.448 26 40 26.448 40 27V33C40 33.552 40.448 34 41 34H47C47.552 34 48 33.552 48 33V27C48 26.448 47.552 26 47 26Z" fill="white"/>
    <path d="M29 26H27V24C27 23.448 26.552 23 26 23C25.448 23 25 23.448 25 24V26H23C22.448 26 22 26.448 22 27V33C22 33.552 22.448 34 23 34H29C29.552 34 30 33.552 30 33V27C30 26.448 29.552 26 29 26Z" fill="white"/>
    <path d="M39 42H31C30.448 42 30 42.448 30 43C30 43.552 30.448 44 31 44H39C39.552 44 40 43.552 40 43C40 42.448 39.552 42 39 42Z" fill="white"/>
    <path d="M44 36H26C24.895 36 24 36.895 24 38V48C24 49.105 24.895 50 26 50H44C45.105 50 46 49.105 46 48V38C46 36.895 45.105 36 44 36ZM42 46H28C27.448 46 27 45.552 27 45C27 44.448 27.448 44 28 44H42C42.552 44 43 44.448 43 45C43 45.552 42.552 46 42 46Z" fill="white"/>
</svg> 